<svg width="160" height="48" viewBox="0 0 160 48" fill="none" xmlns="http://www.w3.org/2000/svg">
<rect width="160" height="48.0001" rx="8" fill="#191919"/>
<path d="M53.6116 19.4392L52.2225 23.6449H50.4366L54.98 10.2733H57.0629L61.6255 23.6449H59.7805L58.3522 19.4392H53.6116ZM57.9962 18.09L56.6869 14.2411C56.3891 13.3685 56.1911 12.575 55.9923 11.8014H55.9532C55.7544 12.5949 55.5365 13.4084 55.2786 14.2212L53.9693 18.09H57.9962Z" fill="white"/>
<path d="M62.9563 17.1767C62.9563 15.9464 62.9164 14.9549 62.8765 14.0424H64.4437L64.5235 15.6886H64.5634C64.9095 15.0974 65.4098 14.6115 66.0109 14.283C66.612 13.9545 67.2911 13.7957 67.9756 13.8236C70.2964 13.8236 72.0424 15.7875 72.0424 18.7039C72.0424 22.156 69.9395 23.8621 67.6778 23.8621C67.0972 23.8871 66.52 23.7614 66.0024 23.4973C65.4848 23.2331 65.0443 22.8395 64.7239 22.3548H64.684V27.572H62.9579L62.9563 17.1767ZM64.6824 19.7362C64.6871 19.976 64.7138 20.215 64.7622 20.4499C64.9075 21.0342 65.2443 21.5531 65.719 21.9235C66.1936 22.294 66.7787 22.4947 67.3808 22.4937C69.2258 22.4937 70.2972 20.9856 70.2972 18.7838C70.2972 16.8597 69.2857 15.2127 67.4407 15.2127C66.8234 15.2299 66.2293 15.4516 65.7517 15.8431C65.2741 16.2345 64.9401 16.7735 64.8021 17.3755C64.7321 17.6073 64.6921 17.8472 64.6832 18.0892L64.6824 19.7362Z" fill="white"/>
<path d="M73.3724 17.1767C73.3724 15.9464 73.3325 14.9549 73.2926 14.0423H74.8566L74.9364 15.6886H74.9763C75.3223 15.0973 75.8227 14.6114 76.4238 14.2829C77.0249 13.9543 77.704 13.7956 78.3885 13.8236C80.7101 13.8236 82.4553 15.7875 82.4553 18.7039C82.4553 22.156 80.3524 23.8621 78.0907 23.8621C77.5101 23.8872 76.9329 23.7616 76.4152 23.4975C75.8976 23.2333 75.4572 22.8396 75.1368 22.3548H75.0969V27.572H73.3708L73.3724 17.1767ZM75.0985 19.7362C75.1032 19.976 75.1299 20.2149 75.1783 20.4499C75.3236 21.0342 75.6604 21.5531 76.1351 21.9235C76.6097 22.294 77.1948 22.4947 77.7969 22.4937C79.6419 22.4937 80.7133 20.9856 80.7133 18.7838C80.7133 16.8597 79.7017 15.2127 77.856 15.2127C77.2393 15.2306 76.6461 15.4527 76.1693 15.8441C75.6924 16.2355 75.3591 16.7741 75.2214 17.3755C75.1514 17.6073 75.1114 17.8472 75.1025 18.0892L75.0985 19.7362Z" fill="white"/>
<path d="M94.3803 23.0502C93.0623 23.5239 91.674 23.7719 90.2736 23.7839C89.3604 23.8723 88.4389 23.7596 87.5739 23.4537C86.7089 23.1477 85.9215 22.6559 85.267 22.013C84.6126 21.37 84.1069 20.5914 83.7857 19.732C83.4645 18.8726 83.3355 17.9532 83.4077 17.0386C83.4277 13.0468 86.1652 10.1345 90.6488 10.1345C91.7904 10.107 92.9252 10.3163 93.9819 10.7492L93.5652 12.1575C92.6346 11.7515 91.6262 11.555 90.6112 11.5819C87.358 11.5819 85.2352 13.6057 85.2352 16.9587C85.2352 20.3517 87.2789 22.3548 90.3933 22.3548C91.177 22.3976 91.961 22.2761 92.695 21.998V18.0062H89.9806V16.625H94.3803V23.0502Z" fill="white"/>
<path d="M101.921 23.6433L101.782 22.433H101.722C101.381 22.8871 100.937 23.2535 100.426 23.5019C99.9156 23.7503 99.3532 23.8734 98.7855 23.8613C98.4079 23.8892 98.0286 23.8383 97.6716 23.712C97.3147 23.5856 96.9878 23.3866 96.7118 23.1273C96.4358 22.8681 96.2166 22.5544 96.0681 22.2061C95.9196 21.8578 95.8451 21.4824 95.8492 21.1038C95.8492 18.7822 97.9121 17.5112 101.622 17.5327V17.3363C101.661 17.0389 101.631 16.7365 101.536 16.4521C101.44 16.1677 101.282 15.9088 101.072 15.6948C100.861 15.4808 100.605 15.3173 100.323 15.2168C100.04 15.1163 99.7383 15.0813 99.4402 15.1145C98.557 15.1177 97.6919 15.365 96.9405 15.8291L96.5414 14.6786C97.4927 14.1058 98.5853 13.8102 99.6957 13.8252C102.632 13.8252 103.346 15.829 103.346 17.7539V21.3465C103.333 22.1168 103.387 22.8869 103.505 23.6481L101.921 23.6433ZM101.663 18.743C99.7579 18.7031 97.596 19.0408 97.596 20.9058C97.5779 21.1276 97.6078 21.3506 97.6839 21.5598C97.76 21.7689 97.8804 21.9591 98.0368 22.1174C98.1932 22.2757 98.3819 22.3983 98.5901 22.4769C98.7983 22.5555 99.021 22.5882 99.243 22.5727C99.7504 22.5862 100.249 22.4377 100.666 22.1487C101.083 21.8597 101.398 21.4453 101.564 20.9656C101.626 20.7857 101.659 20.5971 101.663 20.4068V18.743Z" fill="white"/>
<path d="M105.116 9.55957H106.862V23.6457H105.116V9.55957Z" fill="white"/>
<path d="M109.798 9.55957H111.544V23.6457H109.798V9.55957Z" fill="white"/>
<path d="M114.935 19.1621C114.897 19.6061 114.955 20.0531 115.107 20.4722C115.258 20.8914 115.499 21.2726 115.812 21.5896C116.125 21.9066 116.503 22.1518 116.921 22.3082C117.338 22.4645 117.784 22.5284 118.229 22.4952C119.14 22.524 120.047 22.3548 120.887 21.9995L121.185 23.2489C120.174 23.6702 119.086 23.8731 117.991 23.8445C115.038 23.8445 113.269 21.9004 113.269 19.004C113.269 16.1076 114.975 13.8259 117.773 13.8259C120.907 13.8259 121.741 16.5834 121.741 18.3494C121.737 18.6215 121.718 18.8932 121.681 19.1629L114.935 19.1621ZM120.054 17.9119C120.074 16.8006 119.597 15.0745 117.633 15.0745C115.868 15.0745 115.093 16.7008 114.955 17.9119H120.054Z" fill="white"/>
<path d="M123.388 17.0393C123.388 15.9081 123.368 14.9365 123.308 14.0439H124.836L124.896 15.928H124.975C125.139 15.3415 125.485 14.822 125.963 14.4442C126.44 14.0663 127.025 13.8496 127.634 13.8252C127.801 13.8231 127.968 13.8432 128.13 13.8851V15.5313C127.934 15.4887 127.735 15.4686 127.535 15.4714C126.939 15.4956 126.371 15.7367 125.94 16.1495C125.509 16.5623 125.244 17.1183 125.193 17.7132C125.144 17.9816 125.118 18.2538 125.114 18.5267V23.6433H123.388V17.0393Z" fill="white"/>
<path d="M131.702 14.0431L133.804 19.717C134.022 20.3557 134.26 21.1061 134.419 21.6809H134.459C134.638 21.1053 134.836 20.3716 135.074 19.677L136.979 14.0431H138.824L136.205 20.8874C134.955 24.1806 134.101 25.8667 132.912 26.8981C132.308 27.455 131.569 27.8449 130.769 28.0294L130.332 26.5612C130.891 26.3777 131.41 26.0891 131.861 25.711C132.495 25.1859 132.998 24.5203 133.329 23.767C133.4 23.6374 133.447 23.4963 133.468 23.3503C133.453 23.1928 133.413 23.0387 133.349 22.8936L129.798 14.0455L131.702 14.0431Z" fill="white"/>
<path d="M50.6506 31.861V38.7627H49.7596V31.861H50.6506Z" fill="white"/>
<path d="M52.2074 31.861H53.0984V38.0147H56.0475V38.762H52.2074V31.861Z" fill="white"/>
<path d="M60.6132 35.5263H57.9307V38.0147H60.9206V38.762H57.0398V31.8602H60.7673V32.6075H57.9307V34.7886H60.6132V35.5263Z" fill="white"/>
<path d="M64.2489 31.861H65.1399V35.1894H65.1702C65.3547 34.9235 65.5391 34.6776 65.7123 34.4525L67.8216 31.8618H68.9273L66.4292 34.7902L69.1221 38.7627H68.0674L65.7945 35.3737L65.1391 36.1314V38.766H64.2481L64.2489 31.861Z" fill="white"/>
<path d="M73.3733 35.5263H70.6908V38.0147H73.6806V38.762H69.7998V31.8602H73.5265V32.6075H70.6908V34.7886H73.3733V35.5263Z" fill="white"/>
<path d="M78.1442 32.8134C77.7413 32.597 77.2907 32.4845 76.8333 32.4861C75.8913 32.4861 75.5328 33.049 75.5328 33.524C75.5328 34.1691 75.9527 34.4868 76.9052 34.8548C78.0724 35.3051 78.6663 35.8679 78.6663 36.8818C78.6673 37.371 78.4831 37.8425 78.1508 38.2014C77.8185 38.5604 77.3627 38.7804 76.8748 38.8171L76.5986 39.2777C76.7907 39.2979 76.9691 39.3867 77.1011 39.5278C77.233 39.6688 77.3098 39.8527 77.3171 40.0457C77.3171 40.6397 76.795 40.8752 76.2729 40.8752C76.017 40.8756 75.7646 40.816 75.536 40.7012L75.6893 40.2397C75.8635 40.3294 76.057 40.3751 76.2529 40.373C76.4885 40.373 76.6833 40.2812 76.6833 40.0657C76.6833 39.7894 76.3639 39.6769 75.8849 39.625L76.2945 38.8673H76.2537C75.6385 38.8748 75.0318 38.723 74.4926 38.4267L74.7177 37.6794C75.2003 37.9691 75.7516 38.1246 76.3144 38.1297C77.2261 38.1297 77.7586 37.6507 77.7586 36.9521C77.7586 36.307 77.3898 35.939 76.4581 35.5805C75.3316 35.1814 74.6355 34.597 74.6355 33.6246C74.6355 32.5492 75.5264 31.7508 76.8709 31.7508C77.3997 31.7331 77.9245 31.8492 78.3965 32.0886L78.1442 32.8134Z" fill="white"/>
<path d="M79.8855 31.861H83.6034V32.6083H80.7772V34.9019H83.3886V35.6396H80.7772V38.7627H79.8871L79.8855 31.861Z" fill="white"/>
<path d="M88.4438 35.5263H85.7613V38.0147H88.7511V38.762H84.8703V31.8602H88.597V32.6075H85.7613V34.7886H88.4438V35.5263Z" fill="white"/>
<path d="M89.9103 31.9536C90.5374 31.8589 91.1706 31.8109 91.8048 31.8099C92.8119 31.7288 93.8118 32.0365 94.599 32.6698C94.9303 32.9876 95.1889 33.3733 95.3569 33.8005C95.5249 34.2278 95.5983 34.6863 95.5722 35.1446C95.5958 35.6356 95.52 36.1263 95.3494 36.5872C95.1787 37.0482 94.9167 37.4699 94.5791 37.8271C93.7321 38.5446 92.6382 38.9025 91.531 38.8242C90.9908 38.8281 90.4507 38.8014 89.9135 38.7444L89.9103 31.9536ZM90.8013 38.0562C91.0996 38.0974 91.4008 38.1144 91.7018 38.1073C92.0978 38.1527 92.499 38.1083 92.8755 37.9773C93.2519 37.8463 93.5941 37.6322 93.8764 37.3509C94.1588 37.0695 94.3741 36.7282 94.5064 36.3522C94.6387 35.9761 94.6845 35.5752 94.6405 35.179C94.6509 33.5511 93.7288 32.5165 91.8463 32.5165C91.496 32.5108 91.1461 32.5416 90.8021 32.6083L90.8013 38.0562Z" fill="white"/>
<path d="M96.678 30.8575C96.6802 30.7223 96.735 30.5933 96.8306 30.4978C96.9263 30.4023 97.0553 30.3478 97.1905 30.3457C97.3228 30.3505 97.448 30.4066 97.5397 30.5021C97.6313 30.5976 97.6822 30.7251 97.6815 30.8575C97.6842 30.9251 97.6732 30.9925 97.6492 31.0557C97.6252 31.1189 97.5887 31.1767 97.5418 31.2254C97.495 31.2742 97.4387 31.313 97.3765 31.3395C97.3143 31.366 97.2474 31.3797 97.1797 31.3797C97.1121 31.3797 97.0452 31.366 96.9829 31.3395C96.9207 31.313 96.8645 31.2742 96.8176 31.2254C96.7708 31.1767 96.7342 31.1189 96.7102 31.0557C96.6862 30.9925 96.6753 30.9251 96.678 30.8575ZM97.62 31.861V38.7627H96.7291V31.861H97.62Z" fill="white"/>
<path d="M99.1768 38.7627V31.861H100.15L102.361 35.353C102.823 36.0726 103.237 36.8217 103.6 37.5956L103.62 37.5852C103.541 36.6639 103.518 35.824 103.518 34.7495V31.8618H104.358V38.7636H103.457L101.265 35.2612C100.789 34.5199 100.358 33.7505 99.9752 32.9572L99.9448 32.9675C99.9959 33.8377 100.017 34.6672 100.017 35.8137V38.7627H99.1768Z" fill="white"/>
<path d="M19.0359 8.7998C12.7737 8.7998 10.4832 11.0903 10.4832 17.3525V30.6467C10.4832 36.909 12.7737 39.1994 19.0359 39.1994H32.3261C38.5883 39.1994 40.8828 36.909 40.8828 30.6467V17.3525C40.8828 11.0903 38.5923 8.7998 32.3301 8.7998H19.0359Z" fill="#C51532"/>
<path d="M16.5035 24.0034H17.3099V27.9784H16.5035V26.3641H14.6825V27.9784H13.8762V24.0034H14.6825V25.6073H16.5035V24.0034ZM21.0462 26.2786C21.0462 26.9245 20.7268 27.2702 20.1424 27.2702C19.558 27.2702 19.2339 26.915 19.2339 26.2507V24.0058H18.4276V26.2786C18.4 26.5114 18.4246 26.7474 18.4997 26.9694C18.5748 27.1914 18.6984 27.3939 18.8616 27.5622C19.0247 27.7304 19.2234 27.8601 19.443 27.9419C19.6627 28.0237 19.8978 28.0555 20.1312 28.035C20.3686 28.0554 20.6075 28.0224 20.8304 27.9385C21.0533 27.8545 21.2547 27.7218 21.4196 27.5499C21.5846 27.378 21.709 27.1715 21.7838 26.9453C21.8585 26.7191 21.8817 26.479 21.8517 26.2427V24.001H21.0454L21.0462 26.2786ZM30.3661 26.7369L29.464 24.0034H28.8061L27.904 26.7369L27.0258 24.0058H26.1676L27.5535 27.9784H28.2209L29.1247 25.3686L30.0284 27.9784H30.7022L32.0842 24.0058H31.2483L30.3661 26.7369ZM33.5284 26.2675H34.995V25.5442H33.5284V24.7307H35.6576V24.0058H32.7324V27.9751H35.7342V27.2511H33.5284V26.2675ZM36.6954 27.9728H37.4938V24.0034H36.6954V27.9728ZM23.4428 27.1481L23.0812 27.976H22.2581L24.0088 24.0034H24.7202L26.4646 27.976H25.6191L25.2622 27.1481H23.4428ZM23.743 26.4296H24.9621L24.3505 25.0069L23.743 26.4296Z" fill="white"/>
<path d="M25.683 18.9427C24.3414 18.9413 23.0553 18.4077 22.1067 17.4591C21.1581 16.5105 20.6245 15.2243 20.623 13.8828H21.3415C21.3415 15.0353 21.7994 16.1406 22.6143 16.9555C23.4292 17.7704 24.5345 18.2282 25.687 18.2282C26.8394 18.2282 27.9447 17.7704 28.7596 16.9555C29.5746 16.1406 30.0324 15.0353 30.0324 13.8828H30.7509C30.7492 15.2257 30.2145 16.5129 29.2642 17.4617C28.3139 18.4105 27.0258 18.9432 25.683 18.9427Z" fill="white"/>
</svg>
