<svg width="160" height="48" viewBox="0 0 160 48" fill="none" xmlns="http://www.w3.org/2000/svg">
<rect width="160" height="48" rx="8" fill="#191919"/>
<path fill-rule="evenodd" clip-rule="evenodd" d="M25.1136 11.5479C25.2173 12.9016 24.7892 14.2424 23.9202 15.2856C23.5041 15.8031 22.976 16.2195 22.3757 16.5033C21.7753 16.7872 21.1184 16.9311 20.4543 16.9243C20.412 16.2733 20.4983 15.6203 20.7085 15.0027C20.9186 14.3851 21.2484 13.815 21.679 13.3249C22.5597 12.3218 23.786 11.6873 25.1136 11.5479ZM27.5349 21.4011C27.0937 22.1784 26.8563 23.0547 26.8448 23.9485C26.8459 24.9538 27.1429 25.9366 27.6988 26.7742C28.2546 27.6119 29.0448 28.2674 29.9707 28.659C29.6067 29.8417 29.0579 30.9593 28.3448 31.9705C27.3871 33.4031 26.383 34.8027 24.7892 34.8286C24.0313 34.8461 23.5196 34.6281 22.9865 34.401C22.4303 34.1641 21.8508 33.9172 20.944 33.9172C19.9823 33.9172 19.3768 34.172 18.7929 34.4178C18.2883 34.6301 17.7998 34.8358 17.1112 34.8643C15.5934 34.9205 14.4335 33.3353 13.441 31.9161C11.4572 29.0179 9.9125 23.7485 11.9834 20.163C12.4615 19.3039 13.1539 18.5833 13.9933 18.0714C14.8327 17.5595 15.7903 17.2738 16.773 17.242C17.6338 17.2243 18.4598 17.5561 19.184 17.847C19.7379 18.0695 20.2322 18.268 20.6369 18.268C20.9927 18.268 21.4732 18.0773 22.0332 17.8551C22.9153 17.505 23.9946 17.0766 25.0945 17.1921C25.9374 17.2184 26.7626 17.441 27.5045 17.8421C28.2463 18.2431 28.8845 18.8116 29.3682 19.5025C28.6068 19.9706 27.9761 20.6237 27.5349 21.4011Z" fill="white"/>
<path fill-rule="evenodd" clip-rule="evenodd" d="M38.4216 28.4268C38.424 28.31 38.4609 28.1965 38.5276 28.1006C38.5942 28.0046 38.6877 27.9305 38.7964 27.8874C38.905 27.8444 39.0239 27.8344 39.1382 27.8586C39.2525 27.8829 39.3571 27.9403 39.4389 28.0238C39.5207 28.1072 39.576 28.213 39.598 28.3277C39.6199 28.4425 39.6075 28.5612 39.5623 28.6689C39.5171 28.7767 39.4411 28.8687 39.3439 28.9334C39.2466 28.9981 39.1324 29.0327 39.0155 29.0328C38.9364 29.0332 38.858 29.0177 38.785 28.9872C38.712 28.9567 38.6458 28.9119 38.5904 28.8554C38.535 28.7989 38.4915 28.7319 38.4625 28.6582C38.4335 28.5846 38.4196 28.5059 38.4216 28.4268ZM38.5188 36.016V29.6268H39.5112V36.016H38.5188ZM41.1343 31.1945H42.0503V31.9599H42.1214C42.2422 31.685 42.4457 31.4545 42.7036 31.3006C42.9615 31.1467 43.261 31.0771 43.5603 31.1014C43.7949 31.0838 44.0305 31.1192 44.2496 31.2049C44.4686 31.2907 44.6656 31.4247 44.8259 31.5969C44.9862 31.7691 45.1056 31.9752 45.1755 32.1999C45.2453 32.4245 45.2637 32.662 45.2292 32.8948V36.0161H44.2776V33.1332C44.2776 32.3584 43.9409 31.9735 43.2372 31.9735C43.0779 31.9661 42.919 31.9932 42.7711 32.0529C42.6233 32.1127 42.4902 32.2037 42.3809 32.3197C42.2715 32.4357 42.1885 32.574 42.1376 32.725C42.0867 32.8761 42.069 33.0364 42.0859 33.1949V36.0162H41.1343V31.1945ZM48.4634 31.1137C47.2451 31.1137 46.4619 32.0789 46.4619 33.6025C46.4619 35.1302 47.2368 36.0954 48.4634 36.0954C48.7685 36.1066 49.0709 36.034 49.3378 35.8857C49.6047 35.7373 49.8259 35.5187 49.9775 35.2536H50.0528V36.016H50.9647V29.312H50.0131V31.9597H49.942C49.8011 31.6929 49.5873 31.4718 49.3255 31.322C49.0637 31.1722 48.7647 31.1 48.4634 31.1137ZM48.7332 35.2411C47.927 35.2411 47.4449 34.6252 47.4449 33.6025H47.4449C47.4449 32.5882 47.9321 31.9691 48.7332 31.9691C49.53 31.9691 50.0309 32.6018 50.0309 33.6067C50.0309 34.6168 49.5352 35.2411 48.7332 35.2411ZM52.4014 29.7682C52.3942 29.645 52.4242 29.5225 52.4874 29.4164C52.5506 29.3104 52.6442 29.2258 52.756 29.1736C52.8679 29.1214 52.9928 29.1039 53.1147 29.1235C53.2366 29.1431 53.3497 29.1989 53.4396 29.2835C53.5294 29.3682 53.5918 29.4778 53.6186 29.5983C53.6454 29.7188 53.6354 29.8446 53.5899 29.9593C53.5444 30.0741 53.4655 30.1725 53.3634 30.2419C53.2614 30.3113 53.1408 30.3485 53.0174 30.3486C52.9384 30.3526 52.8595 30.3406 52.7852 30.3134C52.711 30.2861 52.6431 30.2441 52.5856 30.1898C52.528 30.1356 52.4821 30.0703 52.4504 29.9979C52.4188 29.9254 52.4021 29.8473 52.4014 29.7682ZM52.5426 31.1945H53.4911V36.0162H52.5426V31.1945ZM55.9419 31.1943H55.0259L55.0259 36.016H55.9775V33.1686C55.9763 33.011 56.0081 32.855 56.0709 32.7104C56.1336 32.5659 56.2259 32.436 56.3418 32.3293C56.4578 32.2225 56.5947 32.1412 56.7439 32.0905C56.8931 32.0399 57.0513 32.021 57.2082 32.0351C57.3868 32.0363 57.5648 32.0555 57.7395 32.0926V31.1535C57.5997 31.1254 57.4574 31.1121 57.3149 31.1138C57.0391 31.0953 56.7646 31.1647 56.5306 31.312C56.2967 31.4593 56.1155 31.6769 56.013 31.9336H55.9419V31.1943ZM58.7384 29.7682C58.7311 29.645 58.7611 29.5225 58.8243 29.4164C58.8875 29.3104 58.9811 29.2258 59.0929 29.1736C59.2048 29.1214 59.3297 29.1039 59.4516 29.1235C59.5735 29.1431 59.6867 29.1989 59.7765 29.2835C59.8663 29.3682 59.9287 29.4778 59.9555 29.5983C59.9823 29.7188 59.9723 29.8446 59.9268 29.9593C59.8813 30.0741 59.8024 30.1725 59.7004 30.2419C59.5983 30.3113 59.4777 30.3485 59.3543 30.3486C59.2753 30.3526 59.1964 30.3406 59.1222 30.3134C59.048 30.2861 58.98 30.2441 58.9225 30.1898C58.865 30.1356 58.819 30.0703 58.7873 29.9979C58.7557 29.9254 58.739 29.8473 58.7384 29.7682ZM58.8795 31.1945H59.828V36.0162H58.8795V31.1945ZM62.2788 31.1945H61.3628V36.0162H62.3144V33.1949C62.2975 33.0364 62.3152 32.8761 62.3661 32.725C62.417 32.574 62.5 32.4357 62.6094 32.3197C62.7187 32.2037 62.8519 32.1127 62.9997 32.0529C63.1475 31.9932 63.3064 31.9661 63.4657 31.9735C64.1694 31.9735 64.5061 32.3584 64.5061 33.1332V36.0161H65.4577V32.8948C65.4922 32.662 65.4738 32.4245 65.404 32.1999C65.3342 31.9752 65.2147 31.7691 65.0544 31.5969C64.8941 31.4247 64.6972 31.2907 64.4781 31.2049C64.259 31.1192 64.0234 31.0838 63.7888 31.1014C63.4895 31.0771 63.19 31.1467 62.9321 31.3006C62.6742 31.4545 62.4707 31.685 62.3499 31.9599H62.2788V31.1945Z" fill="white"/>
<path fill-rule="evenodd" clip-rule="evenodd" d="M80.2906 22.9983C78.5402 22.9983 77.2592 22.1325 77.1117 20.8139L75.0747 20.8138C75.2033 23.2189 77.1943 24.7404 80.1432 24.7404C83.2949 24.7404 85.2765 23.1823 85.2765 20.6946C85.2765 18.7496 84.143 17.6537 81.4147 17.0085L79.9497 16.6488C78.2359 16.2253 77.5352 15.6722 77.5352 14.7321C77.5352 13.5525 78.6322 12.7421 80.2352 12.7421C81.8382 12.7421 82.9352 13.5431 83.0554 14.8701H85.0642C84.9994 12.5759 83.0732 11 80.2635 11C77.4244 11 75.425 12.5759 75.425 14.8701C75.425 16.7231 76.5586 17.865 79.0003 18.4548L80.7236 18.8699C82.4469 19.2934 83.1747 19.9114 83.1747 20.9435C83.1747 22.1325 81.9679 22.9983 80.2906 22.9983ZM40.5539 20.9247H45.6224L46.8385 24.5187H49.022L44.2212 11.2217H41.9907L37.1899 24.5187H39.3367L40.5539 20.9247ZM45.0965 19.2662H41.0789L43.0605 13.4334H43.1159L45.0965 19.2662ZM55.3441 24.62C57.7774 24.62 59.3899 22.6844 59.3899 19.6718C59.3899 16.6675 57.768 14.7225 55.3075 14.7225C54.6861 14.7025 54.0708 14.8512 53.5273 15.153C52.9837 15.4548 52.5321 15.8984 52.2206 16.4364H52.184V14.8239H50.2578V27.7257H52.2478V22.9238H52.2938C52.5917 23.4645 53.0357 23.9103 53.5752 24.2103C54.1147 24.5102 54.7277 24.6522 55.3441 24.62ZM54.7826 16.4186C56.3302 16.4186 57.3445 17.709 57.3445 19.6718H57.3445C57.3445 21.6523 56.3302 22.9332 54.7826 22.9333C53.2621 22.9333 52.2394 21.6251 52.2394 19.6718C52.2394 17.7362 53.2621 16.4186 54.7826 16.4186ZM70.0593 19.6718C70.0593 22.6844 68.4474 24.62 66.014 24.62C65.3976 24.6522 64.7846 24.5102 64.2451 24.2103C63.7057 23.9103 63.2616 23.4645 62.9637 22.9239H62.9177V27.7257H60.9277V14.8239H62.8539V16.4364H62.8905C63.2021 15.8984 63.6536 15.4548 64.1972 15.153C64.7408 14.8512 65.356 14.7025 65.9774 14.7225C68.438 14.7225 70.0593 16.6675 70.0593 19.6718ZM68.0144 19.6718C68.0144 17.709 67.0001 16.4186 65.4525 16.4186C63.9321 16.4186 62.9094 17.7362 62.9094 19.6718C62.9094 21.6251 63.9321 22.9333 65.4525 22.9333C67.0001 22.9332 68.0145 21.6523 68.0144 19.6718ZM89.5711 12.5298V14.824H91.4146V16.3999H89.5711V21.7444C89.5711 22.5747 89.9402 22.9616 90.7506 22.9616C90.9695 22.9578 91.188 22.9424 91.4052 22.9156V24.482C91.0408 24.5501 90.6705 24.5809 90.2999 24.5741C88.3371 24.5741 87.5717 23.8368 87.5717 21.9567V16.3999H86.1621V14.824H87.5717V12.5298H89.5711ZM97.0803 14.7051C94.2789 14.7051 92.4824 16.6218 92.4824 19.6721C92.4824 22.7308 94.2611 24.6392 97.0803 24.6392C99.9006 24.6392 101.679 22.7308 101.679 19.6721C101.679 16.6218 99.8912 14.7051 97.0803 14.7051ZM97.0803 16.3447C98.6928 16.3447 99.6517 17.5797 99.6517 19.6721C99.6517 21.7729 98.6928 22.9985 97.0803 22.9985C95.4679 22.9985 94.51 21.7729 94.51 19.6721C94.51 17.5891 95.4679 16.3447 97.0803 16.3447ZM103.32 14.8243H105.218V16.4744H105.264C105.392 15.9591 105.694 15.5036 106.119 15.1846C106.543 14.8657 107.065 14.7026 107.596 14.7229C107.825 14.7221 108.054 14.747 108.277 14.7971V16.6585C107.988 16.57 107.686 16.5294 107.383 16.5382C107.094 16.5265 106.806 16.5774 106.539 16.6876C106.271 16.7978 106.03 16.9645 105.833 17.1764C105.636 17.3883 105.488 17.6404 105.397 17.9152C105.307 18.19 105.277 18.4812 105.31 18.7687V24.5189H103.32V14.8243ZM113.278 24.6392C115.471 24.6392 117.185 23.4314 117.453 21.6715L115.563 21.6715C115.386 22.1095 115.073 22.4788 114.67 22.7245C114.266 22.9702 113.795 23.0791 113.324 23.0351C112.966 23.0482 112.61 22.9851 112.278 22.8499C111.946 22.7146 111.647 22.5104 111.401 22.2506C111.154 21.9909 110.965 21.6817 110.847 21.3435C110.729 21.0053 110.685 20.6459 110.716 20.2891V20.1688H117.563V19.487C117.563 16.5476 115.877 14.7051 113.195 14.7051C110.467 14.7051 108.708 16.6773 108.708 19.7181C108.708 22.7496 110.458 24.6392 113.278 24.6392ZM115.572 18.7781H110.726C110.725 18.454 110.788 18.133 110.912 17.8335C111.036 17.5341 111.218 17.2621 111.447 17.0334C111.677 16.8046 111.95 16.6236 112.249 16.5007C112.549 16.3779 112.871 16.3156 113.195 16.3175C113.516 16.3106 113.835 16.3702 114.132 16.4925C114.429 16.6148 114.698 16.7972 114.921 17.0282C115.144 17.2593 115.318 17.534 115.43 17.8351C115.542 18.1362 115.59 18.4572 115.572 18.7781ZM118.9 16.0873L119.987 11.2217H121.922L120.604 16.0873H118.9ZM125.889 14.7227C123.484 14.7227 121.835 16.6771 121.835 19.6719C121.835 22.6668 123.484 24.6201 125.908 24.6202C126.536 24.652 127.159 24.5042 127.706 24.1942C128.253 23.8842 128.7 23.4247 128.995 22.8697H129.031V24.5188H130.967V11.2217H128.968V16.4366H128.93C128.637 15.8928 128.195 15.4433 127.657 15.14C127.119 14.8367 126.506 14.692 125.889 14.7227ZM126.433 22.9334C124.885 22.9334 123.871 21.6619 123.871 19.6719C123.871 17.6997 124.885 16.4187 126.433 16.4188C127.963 16.4188 128.985 17.7175 128.985 19.6719C128.985 21.6431 127.963 22.9334 126.433 22.9334ZM132.721 21.7636C132.721 20.0685 134.019 19.0448 136.323 18.9067L138.977 18.7592V18.022C138.977 16.9439 138.268 16.3353 137.061 16.3353C136.614 16.2757 136.16 16.3814 135.785 16.6326C135.41 16.8839 135.139 17.2634 135.024 17.6999H133.163C133.218 15.9484 134.849 14.7051 137.116 14.7051C139.429 14.7051 140.959 15.9672 140.959 17.8746V24.519H139.051V22.9243H139.005C138.7 23.465 138.255 23.9137 137.716 24.2235C137.178 24.5333 136.567 24.6927 135.946 24.6852C135.538 24.7251 135.126 24.6793 134.737 24.5507C134.348 24.422 133.99 24.2135 133.686 23.9383C133.383 23.6632 133.14 23.3276 132.974 22.953C132.807 22.5785 132.721 22.1733 132.721 21.7636ZM138.977 20.8883V20.1417L136.591 20.2891C135.402 20.3634 134.729 20.8789 134.729 21.7081C134.729 22.5562 135.43 23.1094 136.499 23.1094C136.808 23.1304 137.119 23.0892 137.412 22.9882C137.705 22.8873 137.975 22.7286 138.206 22.5216C138.437 22.3146 138.625 22.0634 138.757 21.7829C138.889 21.5024 138.964 21.1982 138.977 20.8883ZM144.884 14.8241H142.986V24.5187H144.976V18.9347C144.94 18.6146 144.973 18.2905 145.072 17.9842C145.172 17.6778 145.336 17.3964 145.553 17.1588C145.771 16.9213 146.037 16.7331 146.333 16.6071C146.63 16.4811 146.95 16.42 147.272 16.4282C148.672 16.4282 149.345 17.2386 149.345 18.6942V24.5187H151.345V18.3073C151.345 16.0873 150.119 14.7143 147.981 14.7143C147.354 14.6633 146.726 14.8043 146.181 15.1187C145.636 15.4331 145.2 15.9059 144.93 16.4742H144.884V14.8241Z" fill="white"/>
</svg>
