<svg width="160" height="48" viewBox="0 0 160 48" fill="none" xmlns="http://www.w3.org/2000/svg">
<rect width="160" height="48" rx="8" fill="#191919"/>
<path d="M77.1846 15.2528C76.3082 15.2575 75.4528 15.5217 74.7264 16.012C74 16.5024 73.4351 17.1969 73.1029 18.008C72.7708 18.819 72.6863 19.7103 72.8602 20.5693C73.0341 21.4283 73.4585 22.2166 74.0799 22.8346C74.7012 23.4527 75.4918 23.8729 76.3517 24.0421C77.2116 24.2114 78.1024 24.1221 78.9117 23.7857C79.721 23.4492 80.4124 22.8806 80.8989 22.1515C81.3853 21.4225 81.6449 20.5657 81.6449 19.6893C81.653 19.1024 81.543 18.5199 81.3214 17.9764C81.0998 17.4329 80.7712 16.9396 80.3551 16.5257C79.939 16.1118 79.4438 15.7858 78.8992 15.5671C78.3545 15.3484 77.7714 15.2416 77.1846 15.2528ZM77.1846 22.4084C76.6446 22.4467 76.1055 22.3215 75.6376 22.049C75.1697 21.7766 74.7947 21.3696 74.5615 20.8809C74.3282 20.3923 74.2476 19.8448 74.33 19.3097C74.4124 18.7746 74.654 18.2767 75.0234 17.8808C75.3929 17.485 75.8729 17.2097 76.4011 17.0906C76.9293 16.9715 77.4811 17.0143 77.9846 17.2133C78.4881 17.4123 78.92 17.7584 79.224 18.2064C79.5281 18.6544 79.6901 19.1836 79.6891 19.725C79.7002 20.0637 79.6441 20.4013 79.5239 20.7182C79.4038 21.0351 79.222 21.325 78.9891 21.5712C78.7562 21.8174 78.4768 22.015 78.1671 22.1525C77.8574 22.2901 77.5234 22.3649 77.1846 22.3726V22.4084ZM67.4769 15.2528C66.6005 15.2575 65.7451 15.5217 65.0187 16.012C64.2923 16.5024 63.7274 17.1969 63.3952 18.008C63.0631 18.819 62.9786 19.7103 63.1525 20.5693C63.3264 21.4283 63.7508 22.2166 64.3722 22.8346C64.9935 23.4527 65.7841 23.8729 66.644 24.0421C67.5039 24.2114 68.3947 24.1221 69.204 23.7857C70.0133 23.4492 70.7047 22.8806 71.1912 22.1515C71.6776 21.4225 71.9372 20.5657 71.9372 19.6893C71.9453 19.1024 71.8353 18.5199 71.6137 17.9764C71.3921 17.4329 71.0635 16.9396 70.6474 16.5257C70.2313 16.1118 69.7361 15.7858 69.1915 15.5671C68.6468 15.3484 68.0637 15.2416 67.4769 15.2528ZM67.4769 22.4084C66.9369 22.4467 66.3978 22.3215 65.9299 22.049C65.462 21.7766 65.087 21.3696 64.8538 20.8809C64.6205 20.3923 64.5399 19.8448 64.6223 19.3097C64.7047 18.7746 64.9463 18.2767 65.3157 17.8808C65.6852 17.485 66.1652 17.2097 66.6934 17.0906C67.2216 16.9715 67.7734 17.0143 68.2769 17.2133C68.7804 17.4123 69.2123 17.7584 69.5163 18.2064C69.8204 18.6544 69.9824 19.1836 69.9814 19.725C69.9925 20.0637 69.9364 20.4013 69.8162 20.7182C69.6961 21.0351 69.5143 21.325 69.2814 21.5712C69.0485 21.8174 68.7691 22.015 68.4594 22.1525C68.1497 22.2901 67.8157 22.3649 67.4769 22.3726V22.4084ZM55.9326 16.6124V18.4967H60.4287C60.3761 19.3872 60.0132 20.2311 59.4031 20.8818C58.9548 21.344 58.4139 21.7062 57.8158 21.9446C57.2177 22.183 56.5759 22.2923 55.9326 22.2653C54.648 22.2025 53.4368 21.648 52.5498 20.7167C51.6628 19.7853 51.1681 18.5485 51.1681 17.2623C51.1681 15.9762 51.6628 14.7393 52.5498 13.808C53.4368 12.8766 54.648 12.3221 55.9326 12.2594C57.1938 12.2394 58.4116 12.7196 59.3196 13.5951L60.6553 12.2713C60.0273 11.6524 59.2815 11.1657 58.4622 10.84C57.6428 10.5143 56.7664 10.3562 55.8849 10.3751C54.9564 10.3365 54.0296 10.486 53.1603 10.8147C52.291 11.1434 51.4972 11.6444 50.8265 12.2878C50.1558 12.9311 49.6221 13.7035 49.2576 14.5583C48.893 15.4132 48.7051 16.333 48.7051 17.2623C48.7051 18.1917 48.893 19.1114 49.2576 19.9663C49.6221 20.8212 50.1558 21.5935 50.8265 22.2369C51.4972 22.8802 52.291 23.3813 53.1603 23.71C54.0296 24.0387 54.9564 24.1882 55.8849 24.1495C56.771 24.1794 57.6535 24.0228 58.4752 23.69C59.297 23.3572 60.0397 22.8556 60.6553 22.2175C61.7479 21.0175 62.3297 19.4389 62.2772 17.8169C62.2863 17.4171 62.2543 17.0175 62.1818 16.6243L55.9326 16.6124ZM103.159 18.0793C102.893 17.2762 102.387 16.5743 101.708 16.0687C101.03 15.5632 100.212 15.2783 99.3668 15.2528C98.7969 15.2569 98.2337 15.3763 97.7112 15.604C97.1887 15.8316 96.7176 16.1626 96.3265 16.5772C95.9354 16.9917 95.6322 17.4812 95.4353 18.016C95.2384 18.5509 95.1519 19.12 95.1808 19.6893C95.168 20.2724 95.2727 20.8521 95.4889 21.3938C95.705 21.9355 96.0281 22.4281 96.4389 22.8422C96.8496 23.2563 97.3396 23.5834 97.8795 23.8039C98.4195 24.0244 98.9983 24.1338 99.5815 24.1257C100.312 24.1285 101.032 23.9503 101.678 23.6069C102.323 23.2636 102.873 22.7657 103.279 22.1579L101.764 21.1442C101.534 21.5142 101.212 21.8185 100.83 22.0274C100.447 22.2364 100.017 22.3429 99.5815 22.3368C99.1298 22.3533 98.6836 22.2336 98.3008 21.9933C97.918 21.753 97.6163 21.4031 97.4348 20.9892L103.398 18.5444L103.159 18.0793ZM97.1129 19.5581C97.0851 19.2332 97.1242 18.9061 97.2278 18.5969C97.3314 18.2877 97.4973 18.0031 97.7152 17.7605C97.9332 17.518 98.1985 17.3227 98.4949 17.1868C98.7913 17.0508 99.1124 16.9771 99.4384 16.9701C99.7749 16.9482 100.11 17.0259 100.403 17.1935C100.696 17.361 100.933 17.611 101.084 17.9123L97.1129 19.5581ZM92.3425 23.8514H94.2148V10.8164H92.2948L92.3425 23.8514ZM89.1583 16.2427H89.0867C88.7851 15.9141 88.4154 15.6552 88.0034 15.4843C87.5915 15.3133 87.1472 15.2343 86.7015 15.2528C85.5249 15.2528 84.3965 15.7202 83.5645 16.5522C82.7325 17.3842 82.2651 18.5126 82.2651 19.6893C82.2651 20.8659 82.7325 21.9943 83.5645 22.8263C84.3965 23.6583 85.5249 24.1257 86.7015 24.1257C87.1492 24.1429 87.5952 24.0609 88.0075 23.8856C88.4198 23.7104 88.7883 23.4462 89.0867 23.112H89.1583V23.756C89.2088 24.0906 89.1838 24.4323 89.085 24.7559C88.9862 25.0796 88.8162 25.377 88.5875 25.6264C88.3587 25.8757 88.077 26.0707 87.763 26.1969C87.449 26.3231 87.1108 26.3775 86.7731 26.3558C86.2835 26.3523 85.8069 26.1982 85.4079 25.9144C85.0089 25.6307 84.7069 25.231 84.5429 24.7697L82.8494 25.4853C83.1683 26.2623 83.7123 26.9263 84.4115 27.3917C85.1107 27.8572 85.9331 28.1028 86.7731 28.097C89.0629 28.097 90.9949 26.7613 90.9949 23.4817V15.5033H89.1106L89.1583 16.2427ZM86.9162 22.3726C86.2339 22.3271 85.5944 22.024 85.1272 21.5247C84.66 21.0253 84.4001 20.3671 84.4001 19.6833C84.4001 18.9995 84.66 18.3412 85.1272 17.8419C85.5944 17.3426 86.2339 17.0395 86.9162 16.994C87.2527 17.0089 87.5827 17.0915 87.8866 17.237C88.1904 17.3824 88.4618 17.5876 88.6845 17.8404C88.9072 18.0931 89.0766 18.3882 89.1826 18.7079C89.2886 19.0276 89.329 19.3655 89.3014 19.7012C89.3292 20.039 89.2872 20.379 89.1779 20.6998C89.0687 21.0207 88.8945 21.3157 88.6662 21.5663C88.438 21.8169 88.1606 22.0178 87.8513 22.1566C87.542 22.2953 87.2074 22.3688 86.8685 22.3726H86.9162ZM112.342 10.8164H107.679V23.8514H109.623V18.9141H112.342C112.892 18.9439 113.443 18.8614 113.96 18.6714C114.477 18.4814 114.95 18.188 115.35 17.8091C115.751 17.4302 116.069 16.9737 116.287 16.4676C116.505 15.9614 116.617 15.4162 116.617 14.8652C116.617 14.3142 116.505 13.769 116.287 13.2629C116.069 12.7567 115.751 12.3002 115.35 11.9213C114.95 11.5424 114.477 11.249 113.96 11.059C113.443 10.8691 112.892 10.7865 112.342 10.8164ZM112.342 17.1013H109.575V12.6291H112.342C112.65 12.6066 112.958 12.6478 113.249 12.75C113.54 12.8522 113.806 13.0132 114.032 13.2231C114.258 13.4329 114.438 13.687 114.561 13.9696C114.684 14.2521 114.748 14.557 114.748 14.8652C114.748 15.1734 114.684 15.4783 114.561 15.7609C114.438 16.0434 114.258 16.2975 114.032 16.5074C113.806 16.7172 113.54 16.8782 113.249 16.9804C112.958 17.0826 112.65 17.1238 112.342 17.1013ZM124.364 15.229C123.654 15.1869 122.948 15.3529 122.331 15.7067C121.715 16.0605 121.215 16.5867 120.893 17.2206L122.622 17.9481C122.791 17.6309 123.05 17.3709 123.366 17.2011C123.682 17.0312 124.042 16.9591 124.399 16.994C124.643 16.9693 124.889 16.9929 125.124 17.0635C125.358 17.1341 125.576 17.2503 125.766 17.4054C125.955 17.5605 126.112 17.7515 126.228 17.9674C126.343 18.1833 126.415 18.4199 126.439 18.6636V18.7948C125.813 18.4685 125.117 18.2967 124.411 18.2939C122.551 18.2939 120.655 19.3195 120.655 21.2277C120.673 21.6305 120.771 22.0255 120.945 22.3896C121.118 22.7536 121.362 23.0792 121.664 23.3471C121.965 23.615 122.317 23.8199 122.699 23.9495C123.081 24.0791 123.484 24.1309 123.887 24.1018C124.384 24.1379 124.882 24.0383 125.327 23.8136C125.772 23.5888 126.148 23.2474 126.415 22.8258V23.8514H128.287V18.8306C128.311 16.517 126.594 15.229 124.364 15.229ZM124.125 22.3845C123.493 22.3845 122.599 22.0625 122.599 21.2754C122.599 20.2736 123.708 19.8801 124.662 19.8801C125.271 19.8551 125.875 19.9908 126.415 20.2736C126.347 20.8393 126.078 21.3619 125.658 21.7469C125.238 22.1319 124.695 22.3539 124.125 22.3726V22.3845ZM135.157 15.5033L132.926 21.1561H132.855L130.541 15.5033H128.454L131.925 23.3982L129.993 27.7989H132.02L137.315 15.5033H135.157ZM117.637 23.8514H119.581V10.8164H117.637V23.8514Z" fill="white"/>
<path d="M12.4509 8.99169C12.0579 9.45634 11.8574 10.0536 11.8904 10.6613V37.0415C11.8498 37.6501 12.0513 38.2502 12.4509 38.7111L12.5344 38.8065L27.3106 24.0303V23.6725L12.5344 8.9082L12.4509 8.99169Z" fill="url(#paint0_linear)"/>
<path d="M32.1997 28.9566L27.3101 24.0312V23.6735L32.1997 18.748L32.307 18.8196L38.1626 22.135C39.8323 23.0772 39.8323 24.6275 38.1626 25.5816L32.3309 28.897L32.1997 28.9566Z" fill="url(#paint1_linear)"/>
<path d="M32.3431 28.8843L27.3104 23.8516L12.4507 38.7113C12.7877 39.0112 13.219 39.1838 13.6699 39.1991C14.1208 39.2143 14.5629 39.0713 14.9193 38.7947L32.3431 28.8843Z" fill="url(#paint2_linear)"/>
<path d="M32.3431 18.819L14.9193 8.92046C14.5652 8.6401 14.1235 8.49358 13.672 8.50667C13.2205 8.51975 12.788 8.69161 12.4507 8.99201L27.3104 23.8517L32.3431 18.819Z" fill="url(#paint3_linear)"/>
<path opacity="0.2" d="M32.2 28.7773L14.9193 38.6162C14.5758 38.8755 14.1571 39.0158 13.7268 39.0158C13.2964 39.0158 12.8777 38.8755 12.5342 38.6162L12.4507 38.6997L12.5342 38.7951C12.8777 39.0544 13.2964 39.1946 13.7268 39.1946C14.1571 39.1946 14.5758 39.0544 14.9193 38.7951L32.3431 28.8847L32.2 28.7773Z" fill="#191919"/>
<path opacity="0.12" d="M12.4505 38.5448C12.0675 38.0718 11.8797 37.4702 11.9258 36.8633V37.0422C11.8852 37.6508 12.0867 38.2509 12.4863 38.7118L12.5698 38.6283L12.4505 38.5448Z" fill="#191919"/>
<path opacity="0.12" d="M38.1632 25.4019L32.2002 28.777L32.3075 28.8843L38.1632 25.5689C38.5088 25.4227 38.8087 25.1861 39.0311 24.8839C39.2536 24.5816 39.3905 24.225 39.4273 23.8516C39.3527 24.1909 39.1995 24.508 38.9799 24.7773C38.7603 25.0466 38.4806 25.2606 38.1632 25.4019Z" fill="#191919"/>
<path opacity="0.25" d="M14.9198 9.08749L38.1634 22.3014C38.4809 22.4428 38.7606 22.6567 38.9802 22.926C39.1998 23.1953 39.353 23.5124 39.4276 23.8518C39.3907 23.4783 39.2539 23.1217 39.0314 22.8195C38.8089 22.5172 38.5091 22.2806 38.1634 22.1344L14.9198 8.92052C13.2621 7.96645 11.8906 8.75356 11.8906 10.6617V10.8406C11.9264 8.93245 13.2621 8.14534 14.9198 9.08749Z" fill="white"/>
<path d="M49.8743 34.407H49.0156V32.1172H49.8743V34.407Z" fill="white" stroke="white" stroke-width="0.2" stroke-miterlimit="10"/>
<path d="M51.3887 39.3565V32.1174H53.6665C54.1576 32.0938 54.6482 32.1716 55.1078 32.346C55.5674 32.5204 55.9862 32.7877 56.3379 33.1311C56.9825 33.8507 57.3388 34.7828 57.3388 35.7489C57.3388 36.7149 56.9825 37.647 56.3379 38.3666C55.9842 38.7058 55.5645 38.9686 55.105 39.1389C54.6455 39.3092 54.1559 39.3832 53.6665 39.3565H51.3887ZM52.3189 38.462H53.6665C54.0243 38.4849 54.3829 38.4311 54.7182 38.3042C55.0535 38.1773 55.3578 37.9802 55.6108 37.7262C55.8637 37.4721 56.0594 37.1669 56.1849 36.831C56.3103 36.4951 56.3625 36.1364 56.3379 35.7787C56.3731 35.4148 56.3289 35.0476 56.2085 34.7024C56.088 34.3572 55.8942 34.0423 55.6402 33.7793C55.3863 33.5163 55.0783 33.3115 54.7376 33.179C54.3968 33.0465 54.0314 32.9895 53.6665 33.0119H52.3189V38.462Z" fill="white" stroke="white" stroke-width="0.2" stroke-miterlimit="10"/>
<path d="M62.8138 33.0116H59.5103V35.3133H62.4918V36.1839H59.5103V38.4856H62.8138V39.3562H58.5801V32.1172H62.8138V33.0116Z" fill="white" stroke="white" stroke-width="0.2" stroke-miterlimit="10"/>
<path d="M64.1494 39.3562V32.1172H65.2824L68.8602 37.7701V36.3628V32.1172H69.7904V39.3562H68.8244L65.1273 33.3933V34.8005V39.3562H64.1494Z" fill="white" stroke="white" stroke-width="0.2" stroke-miterlimit="10"/>
<path d="M72.8315 39.3557L75.5626 32.0928H76.624L79.355 39.3557H78.3175L77.6258 37.3879H74.5727L73.8572 39.3557H72.8315ZM74.8828 36.5173H77.268L76.0754 33.2377L74.8828 36.5173Z" fill="white" stroke="white" stroke-width="0.2" stroke-miterlimit="10"/>
<path d="M80.2974 39.3562V32.1172H81.2395V38.4856H84.376V39.3562H80.2974Z" fill="white" stroke="white" stroke-width="0.2" stroke-miterlimit="10"/>
<path d="M85.3896 39.3562V32.1172H86.3199V39.3562H85.3896Z" fill="white" stroke="white" stroke-width="0.2" stroke-miterlimit="10"/>
<path d="M87.9893 39.3562V32.1172H89.1819L92.7596 37.7701V36.3628V32.1172H93.6898V39.3562H92.7239L89.0268 33.3933V34.8005V39.3562H87.9893Z" fill="white" stroke="white" stroke-width="0.2" stroke-miterlimit="10"/>
<defs>
<linearGradient id="paint0_linear" x1="25.9988" y1="10.387" x2="5.98705" y2="30.3987" gradientUnits="userSpaceOnUse">
<stop stop-color="#00A0FF"/>
<stop offset="0.01" stop-color="#00A1FF"/>
<stop offset="0.26" stop-color="#00BEFF"/>
<stop offset="0.51" stop-color="#00D2FF"/>
<stop offset="0.76" stop-color="#00DFFF"/>
<stop offset="1" stop-color="#00E3FF"/>
</linearGradient>
<linearGradient id="paint1_linear" x1="40.3451" y1="23.8523" x2="11.4963" y2="23.8523" gradientUnits="userSpaceOnUse">
<stop stop-color="#FFE000"/>
<stop offset="0.41" stop-color="#FFBD00"/>
<stop offset="0.78" stop-color="#FFA500"/>
<stop offset="1" stop-color="#FF9C00"/>
</linearGradient>
<linearGradient id="paint2_linear" x1="29.6121" y1="26.5945" x2="2.46868" y2="53.726" gradientUnits="userSpaceOnUse">
<stop stop-color="#FF3A44"/>
<stop offset="1" stop-color="#C31162"/>
</linearGradient>
<linearGradient id="paint3_linear" x1="8.70594" y1="0.214533" x2="20.8227" y2="12.3313" gradientUnits="userSpaceOnUse">
<stop stop-color="#32A071"/>
<stop offset="0.07" stop-color="#2DA771"/>
<stop offset="0.48" stop-color="#15CF74"/>
<stop offset="0.8" stop-color="#06E775"/>
<stop offset="1" stop-color="#00F076"/>
</linearGradient>
</defs>
</svg>
